<?xml version="1.0" encoding="UTF-8" standalone="no"?>
<svg
   id="colour_logo"
   viewBox="0 0 34.300964 48.818233"
   version="1.1"
   sodipodi:docname="logo_short.svg"
   width="34.300964"
   height="48.818233"
   inkscape:version="1.1 (335ed6e1b2, 2021-09-07)"
   xmlns:inkscape="http://www.inkscape.org/namespaces/inkscape"
   xmlns:sodipodi="http://sodipodi.sourceforge.net/DTD/sodipodi-0.dtd"
   xmlns="http://www.w3.org/2000/svg"
   xmlns:svg="http://www.w3.org/2000/svg"
   xmlns:rdf="http://www.w3.org/1999/02/22-rdf-syntax-ns#"
   xmlns:cc="http://creativecommons.org/ns#"
   xmlns:dc="http://purl.org/dc/elements/1.1/">
  <sodipodi:namedview
     id="namedview23"
     pagecolor="#ffffff"
     bordercolor="#666666"
     borderopacity="1.0"
     inkscape:pageshadow="2"
     inkscape:pageopacity="0.0"
     inkscape:pagecheckerboard="0"
     showgrid="false"
     fit-margin-top="0"
     fit-margin-left="0"
     fit-margin-right="0"
     fit-margin-bottom="0"
     inkscape:zoom="2.2863119"
     inkscape:cx="71.075166"
     inkscape:cy="52.267584"
     inkscape:window-width="1920"
     inkscape:window-height="1019"
     inkscape:window-x="0"
     inkscape:window-y="33"
     inkscape:window-maximized="1"
     inkscape:current-layer="PALO_IT" />
  <defs
     id="defs4">
    <style
       id="style2">.cls-1{fill:#ef8035;}.cls-2{fill:#ffaf3b;}.cls-3{fill:#38e068;}.cls-4{fill:#05cc98;}.cls-5{fill:#706f6b;}</style>
  </defs>
  <title
     id="title6">colour_logo</title>
  <g
     id="PALO_IT"
     transform="translate(-0.62903521,-0.5)">
    <g
       id="A" />
    <path
       id="P"
       class="cls-4"
       d="M 17.78,0.5 H 4.31 a 3.68,3.68 0 0 0 -0.57,7.31 3.61,3.61 0 0 0 0.57,0 h 13.47 a 9.8,9.8 0 0 1 0,19.6 H 4.31 a 3.61,3.61 0 0 0 -0.57,0 3.68,3.68 0 0 0 -3.11,3.72 v 14.7 a 3.68,3.68 0 0 0 7.35,0 v -11 h 9.8 a 17.15,17.15 0 0 0 0,-34.3 z" />
  </g>
  <metadata
     id="metadata840">
    <rdf:RDF>
      <cc:Work
         rdf:about="">
        <dc:title>colour_logo</dc:title>
      </cc:Work>
    </rdf:RDF>
  </metadata>
</svg>
